<svg width="29" height="28" viewBox="0 0 29 28" fill="none" xmlns="http://www.w3.org/2000/svg">
<path d="M24.6503 6.38531C23.5023 5.23963 21.9471 4.59546 20.3253 4.59382C18.7034 4.59218 17.1469 5.2332 15.9966 6.37656L14.4128 7.85094L12.8291 6.37656C11.6796 5.22857 10.1212 4.58421 8.49669 4.58523C6.87216 4.58626 5.31457 5.23259 4.16657 6.38203C3.01858 7.53148 2.37422 9.08988 2.37525 10.7144C2.37627 12.3389 3.0226 13.8965 4.17204 15.0445L13.9458 24.9605C14.0068 25.0223 14.0796 25.0714 14.1597 25.1049C14.2399 25.1384 14.3259 25.1557 14.4128 25.1557C14.4997 25.1557 14.5857 25.1384 14.6659 25.1049C14.7461 25.0714 14.8188 25.0223 14.8799 24.9605L24.6503 15.0489C25.2193 14.4801 25.6707 13.8048 25.9786 13.0615C26.2866 12.3183 26.4451 11.5216 26.4451 10.7171C26.4451 9.91258 26.2866 9.11593 25.9786 8.37267C25.6707 7.62941 25.2193 6.9541 24.6503 6.38531ZM23.7184 14.1236L14.4128 23.5648L5.10392 14.1203C4.20665 13.2168 3.70406 11.9944 3.70623 10.7211C3.7084 9.44768 4.21516 8.22707 5.1155 7.32658C6.01584 6.42609 7.23637 5.91914 8.50975 5.91677C9.78312 5.91439 11.0055 6.41679 11.9092 7.31391C11.9145 7.31962 11.9204 7.32475 11.9267 7.32922L13.9655 9.22797C14.087 9.34114 14.2468 9.40407 14.4128 9.40407C14.5788 9.40407 14.7387 9.34114 14.8602 9.22797L16.8989 7.32813C16.9053 7.32366 16.9111 7.31852 16.9164 7.31281C17.363 6.8636 17.8938 6.50695 18.4785 6.26334C19.0632 6.01972 19.6902 5.89393 20.3237 5.89317C20.9571 5.89241 21.5844 6.01669 22.1697 6.25891C22.755 6.50112 23.2867 6.85648 23.7343 7.30463C24.1819 7.75277 24.5367 8.28487 24.7783 8.87042C25.0198 9.45597 25.1434 10.0834 25.1419 10.7169C25.1405 11.3503 25.014 11.9772 24.7697 12.5616C24.5254 13.146 24.1682 13.6764 23.7184 14.1225V14.1236Z" fill="black"/>
</svg>
