<svg width="28" height="28" viewBox="0 0 28 28" fill="none" xmlns="http://www.w3.org/2000/svg">
<path d="M26.25 10.7187C26.2519 11.552 26.0885 12.3774 25.7694 13.1471C25.4502 13.9168 24.9816 14.6157 24.3907 15.2031L14.6235 25.1147C14.542 25.1974 14.445 25.263 14.338 25.3078C14.2309 25.3526 14.1161 25.3757 14 25.3757C13.884 25.3757 13.7691 25.3526 13.6621 25.3078C13.5551 25.263 13.458 25.1974 13.3766 25.1147L3.6094 15.2031C2.41862 14.0138 1.74907 12.4001 1.74805 10.7171C1.74702 9.03416 2.41461 7.41969 3.60394 6.22891C4.79327 5.03813 6.40692 4.36858 8.08991 4.36755C9.7729 4.36652 11.3874 5.03411 12.5782 6.22344L14 7.55234L15.4317 6.21906C16.3204 5.33486 17.451 4.73375 18.681 4.49163C19.911 4.2495 21.1851 4.37721 22.3425 4.85863C23.5 5.34005 24.4888 6.1536 25.1843 7.19657C25.8797 8.23954 26.2506 9.46518 26.25 10.7187Z" fill="black"/>
</svg>
